<svg xmlns="http://www.w3.org/2000/svg" viewBox="0 0 16.15 16.07"><defs><style>.cls-1{fill:#fbb127;}.cls-1,.cls-3,.cls-5,.cls-8{stroke:#000;}.cls-1,.cls-3,.cls-5,.cls-7,.cls-8{stroke-miterlimit:10;}.cls-1,.cls-3,.cls-5{stroke-width:0.14px;}.cls-2,.cls-5{fill:#fff37d;}.cls-3{fill:#422106;}.cls-4{fill:#60390c;}.cls-6,.cls-7{fill:#fffc00;}.cls-7{stroke:#ff0;stroke-width:0.06px;}.cls-8{fill:#c1272d;stroke-width:0.15px;}.cls-9{fill:red;}.cls-10{fill:#9e005d;}.cls-11{fill:#fbb16b;}.cls-12{fill:#fced84;}.cls-13{fill:#e07d37;}.cls-14{fill:#fff;}</style></defs><g id="Layer_2" data-name="Layer 2"><g id="Layer_37" data-name="Layer 37"><g id="BottomBun1"><path class="cls-1" d="M15.51,14.09a1.65,1.65,0,0,1-1.13,1.15,26,26,0,0,1-10.56.39l-.48-.07-.37,0a2.31,2.31,0,0,1-2-1.75,2.17,2.17,0,0,1,.26-1.4l.27.05c.69-.32.68-.23.68-.23,9.41-.47,12.08.13,12.08.13,1.08.11,1,.31,1,.31A1.6,1.6,0,0,1,15.51,14.09Z"/><path class="cls-2" d="M2.42,15.23s-2.8-.82-.59-3.88C1.83,11.35.19,14.07,2.42,15.23Z"/><path class="cls-2" d="M14.19,15.18a2.37,2.37,0,0,0,.24-3.5S16.93,14.06,14.19,15.18Z"/></g><g id="Meat1"><path class="cls-3" d="M.73,11.11S-.08,12.74,2,13.18a41.09,41.09,0,0,0,12.48.27,1.35,1.35,0,0,0,1.08-1.86C14.94,10,.86,9.39.73,11.11Z"/><ellipse class="cls-4" cx="1.21" cy="11.46" rx="0.13" ry="0.15"/><ellipse class="cls-4" cx="14.87" cy="12.58" rx="0.13" ry="0.15"/><path class="cls-4" d="M1.71,12.16a.46.46,0,0,1-.22-.35.19.19,0,0,0-.23-.15.23.23,0,0,0-.14.26.89.89,0,0,0,.39.6C1.73,12.65,1.92,12.29,1.71,12.16Z"/><path class="cls-4" d="M14.73,12.74a.19.19,0,0,0-.24-.14.72.72,0,0,0-.28.13.22.22,0,0,0-.07.29.18.18,0,0,0,.26.07l0,0h.08l.06,0A.22.22,0,0,0,14.73,12.74Z"/><path class="cls-4" d="M1,10.9S-.36,12.43,2,13.1C2,13.1.25,12.47,1,10.9Z"/><path class="cls-4" d="M14,13.4s1.77.18,1.33-1.88C15.34,11.52,16.35,13,14,13.4Z"/><path class="cls-4" d="M4.32,12.79a19.74,19.74,0,0,1-2-.25c-.24,0-.35.36-.11.41a19.49,19.49,0,0,0,2.14.25C4.57,13.22,4.57,12.8,4.32,12.79Z"/></g><g id="Cheese1"><path class="cls-5" d="M6.61,9.05s2.11,3.33,3.5,4.33c0,0-.23.3.27.38,0,0,3.86-2.07,4.49-2.9C14.87,10.86,13.09,6.09,6.61,9.05Z"/><path class="cls-6" d="M10.5,13.57s-2.73-3.11-3-3.49c0,0,0,.1.59.94a9.82,9.82,0,0,0,.76,1,12.86,12.86,0,0,0,1.31,1.39c.08.3.14.27.27.25A.18.18,0,0,0,10.5,13.57Z"/><path class="cls-6" d="M11.39,12.38c-.24,0-.24.42,0,.42S11.64,12.38,11.39,12.38Z"/><path class="cls-6" d="M12.77,11.4a6.61,6.61,0,0,0-1.06.72c-.19.16,0,.52.19.36A6.61,6.61,0,0,1,13,11.76C13.19,11.65,13,11.29,12.77,11.4Z"/></g><g id="Cheese2"><path class="cls-5" d="M1.8,9.94s-1.16,2.27.14,3.9c0,0,.29,0,.12-.35A17.87,17.87,0,0,1,5.14,11,2.7,2.7,0,0,0,1.8,9.94Z"/><path class="cls-7" d="M1.59,12.24A12.65,12.65,0,0,0,2,13.71s0,0-.05,0a4.92,4.92,0,0,1-.44-1.36,3.11,3.11,0,0,1,0-.68,1,1,0,0,1,.11-.56,5.09,5.09,0,0,1,0,.55C1.54,11.83,1.56,12,1.59,12.24Z"/></g><g id="Ketchup"><path class="cls-8" d="M.84,9.66a5.09,5.09,0,0,0-.76,2,.49.49,0,0,0,.2.47A.46.46,0,0,0,.8,12c.14-.13.24-.31.38-.45a.49.49,0,0,1,.51-.17c.24.09.32.45.55.55s.49-.08.63-.31a4.09,4.09,0,0,1,.38-.68c.56-.66,1.18.79,2,.33a6.41,6.41,0,0,0,.65-.54.6.6,0,0,1,.76-.08c.1.09.16.22.26.3a.64.64,0,0,0,.69,0c.22-.11.41-.27.64-.36.57-.2.56.23.84.58s.49.12.72,0,.49-.31.73-.21a2.26,2.26,0,0,1,.37.26,1,1,0,0,0,.76.16c.42-.07.82-.39,1.26-.31s.65.7,1.15.69c.29,0,.55-.24.83-.22s.57.37.87.53a.15.15,0,0,0,.11,0A.23.23,0,0,0,16,12a1.8,1.8,0,0,0,0-1.33A4.79,4.79,0,0,0,12.84,8,18.25,18.25,0,0,0,8.6,7.36a15.3,15.3,0,0,0-4.73,0A4,4,0,0,0,.62,10.25"/><path class="cls-9" d="M.59,11.5a1,1,0,0,0,.64-.2c.21-.16.57-.44.75-.07.08.16.32,0,.24-.14a.56.56,0,0,0-.61-.32c-.39.07-.6.46-1,.45a.14.14,0,0,0,0,.28Z"/><path class="cls-9" d="M3.52,10.39a.93.93,0,0,1,.72.32c.11.13.2.3.37.34a.14.14,0,0,0,.08-.27c-.09,0-.16-.15-.21-.21a1.24,1.24,0,0,0-.25-.26,1.27,1.27,0,0,0-.71-.2c-.18,0-.18.27,0,.28Z"/><path class="cls-10" d="M2.68,10.92a.14.14,0,0,0,0-.28.14.14,0,0,0,0,.28Z"/><path class="cls-10" d="M1,10.63l.43,0a.14.14,0,0,0,.14-.14.14.14,0,0,0-.14-.14l-.43,0a.14.14,0,0,0-.14.14.14.14,0,0,0,.14.14Z"/><path class="cls-10" d="M6.35,10.05a1,1,0,0,0,.39,0A.83.83,0,0,1,6.87,10S7,10,7,10s.24-.21.07-.27a.39.39,0,0,0-.33,0,.41.41,0,0,1-.17.07.93.93,0,0,1-.24,0c-.18,0-.18.26,0,.28Z"/><path class="cls-10" d="M12.08,11a.13.13,0,0,0,0-.27.13.13,0,0,0,0,.27Z"/><path class="cls-10" d="M10.53,10.09c.07,0,.13.14.18.2a3.85,3.85,0,0,0,.3.27.13.13,0,0,0,.19-.05.14.14,0,0,0,0-.19,1.85,1.85,0,0,1-.28-.28.58.58,0,0,0-.27-.22c-.17,0-.24.23-.07.27Z"/><path class="cls-10" d="M5.26,10.8a.89.89,0,0,0,.33-.15,4.05,4.05,0,0,0,.35-.21c.14-.11-.06-.31-.2-.2s-.2.11-.29.17a1,1,0,0,1-.27.13c-.17,0-.1.29.08.26Z"/><path class="cls-9" d="M13.83,11.35a.62.62,0,0,0,.42.06c.34-.1.66-.34,1,0,.12.13.31-.07.19-.2a.75.75,0,0,0-.72-.25,1.68,1.68,0,0,0-.38.12.4.4,0,0,1-.4,0c-.17-.06-.25.21-.08.27Z"/><path class="cls-9" d="M9,10.34a.57.57,0,0,0,.43.56c.36.1.6-.24,1-.21.18,0,.18-.26,0-.28a1,1,0,0,0-.61.14c-.12.07-.22.12-.35,0a.26.26,0,0,1-.16-.26c0-.18-.26-.18-.28,0Z"/></g><g id="TopBun1"><path class="cls-1" d="M1,6.79a8.15,8.15,0,0,1,6.8-4.92A8.27,8.27,0,0,1,14.34,4l.24.27a.8.8,0,0,1,.14.18c0,.06.14.2.19.28s.13.24.19.36a7.89,7.89,0,0,1,.64,2c.19,1.19.7,3-4.1,3.23s-5.93.11-9.19-.57A2,2,0,0,1,1,6.79Z"/><path class="cls-11" d="M1.22,9.07s7.12-2.23,13.7.46c0,0-.84.87-6.85.84C8.07,10.37,3,10.45,1.22,9.07Z"/><path class="cls-12" d="M1,7.27S2.36,2.1,8.69,2c0,0,6.86,0,7.05,5.86,0,0-4.4-9.61-12-3.39A20.36,20.36,0,0,0,1,7.27Z"/><path class="cls-11" d="M1.34,7s-.82,1.12,1.57.85a40.27,40.27,0,0,1,10,0s2.66,1.16,2.31-1l.51.92a1.56,1.56,0,0,1-.82,1.71,21.17,21.17,0,0,0-13.7-.46S.2,7.56,1.34,7Z"/><path class="cls-13" d="M1.9,6.27S1.22,7.65,3,7.12c0,0,8.21-.72,10-.14,0,0,1.9.52,1.44-1.22L15.3,7s.21,1.66-2,1.08c0,0-3.76-1-10.64-.16C2.67,7.93-.1,8.15,1.9,6.27Z"/></g><g id="OpenEyes"><path d="M15.07,5.23c0,.14,0,.29,0,.44a1.95,1.95,0,0,1-1.73,1.94,2.16,2.16,0,0,1-1.88-.79,3.2,3.2,0,0,1-.61-1.24,3.25,3.25,0,0,1,.07-2.14,1.62,1.62,0,0,1,1.83-1.07,2.78,2.78,0,0,1,2,1.84c.07.18.12.37.18.55a.24.24,0,0,0,0,.08ZM14.9,5c0-.1-.06-.26-.11-.41a2,2,0,0,0-.12-.34,2.54,2.54,0,0,0-1.9-1.65,1.46,1.46,0,0,0-1.63.93,3.16,3.16,0,0,0,.15,2.69,2,2,0,0,0,.57.76,1.92,1.92,0,0,0,2,.33,1.82,1.82,0,0,0,.84-.76A2.4,2.4,0,0,0,14.9,5Z"/><path d="M3.11,5.33a6.45,6.45,0,0,1,0-.76,3.35,3.35,0,0,1,2.29-2.8A3.94,3.94,0,0,1,9.9,3.3a3.2,3.2,0,0,1,.51,1.35,3.6,3.6,0,0,1-.17,1.9A2.61,2.61,0,0,1,8.56,8.14a4.52,4.52,0,0,1-4.14-.59A2.65,2.65,0,0,1,3.29,6.11,1,1,0,0,0,3.22,6Zm.41.26A2.41,2.41,0,0,0,4.47,7.2,4.15,4.15,0,0,0,8.24,8a2.6,2.6,0,0,0,1.38-.81,2.78,2.78,0,0,0,.63-1.67,3.3,3.3,0,0,0-.4-1.89A3.63,3.63,0,0,0,5.91,1.92,3.15,3.15,0,0,0,3.52,5.59Z"/><path d="M6.16,0c.25,0,.49.07.73.12A1.83,1.83,0,0,1,7.67.5,1.64,1.64,0,0,1,8,.81,3.11,3.11,0,0,0,5.45.37a2.93,2.93,0,0,0-1.69.91A1.31,1.31,0,0,1,4.33.49,2.66,2.66,0,0,1,5.48.05l.1,0Z"/><path d="M13.55,1.87a2.32,2.32,0,0,0-1.24-.45,1.39,1.39,0,0,0-.83.17.88.88,0,0,0-.39.47.6.6,0,0,1,.12-.51.92.92,0,0,1,.51-.3,1.79,1.79,0,0,1,1.46.28,3.45,3.45,0,0,1,.38.31Z"/><path class="cls-14" d="M14.9,5a2.4,2.4,0,0,1-.17,1.55,1.82,1.82,0,0,1-.84.76,1.92,1.92,0,0,1-2-.33,2,2,0,0,1-.57-.76,3.16,3.16,0,0,1-.15-2.69,1.46,1.46,0,0,1,1.63-.93,2.54,2.54,0,0,1,1.9,1.65,2,2,0,0,1,.12.34C14.84,4.7,14.87,4.86,14.9,5Zm-2.68.24a2.67,2.67,0,0,0,.14.38.9.9,0,0,0,.62.5.81.81,0,0,0,1-.47,1.47,1.47,0,0,0,0-.88c-.2-.72-.89-1.11-1.39-.73A1.19,1.19,0,0,0,12.22,5.2Z"/><path class="cls-14" d="M3.52,5.59A3.15,3.15,0,0,1,5.91,1.92,3.63,3.63,0,0,1,9.85,3.61a3.3,3.3,0,0,1,.4,1.89,2.78,2.78,0,0,1-.63,1.67A2.6,2.6,0,0,1,8.24,8,4.15,4.15,0,0,1,4.47,7.2,2.41,2.41,0,0,1,3.52,5.59Zm5.22-.74a1.78,1.78,0,0,0-.08-.27,1.62,1.62,0,0,0-2.43-.8,1.37,1.37,0,0,0-.46,1.59,1.21,1.21,0,0,0,.75.86,1.83,1.83,0,0,0,1.19.15A1.57,1.57,0,0,0,8.42,6,1.19,1.19,0,0,0,8.74,4.85Z"/><path d="M12.22,5.2A1.19,1.19,0,0,1,12.56,4c.5-.38,1.19,0,1.39.73a1.47,1.47,0,0,1,0,.88.81.81,0,0,1-1,.47.9.9,0,0,1-.62-.5A2.67,2.67,0,0,1,12.22,5.2ZM13,4.39c.23,0,.24,0,.28-.2a.11.11,0,0,0-.07-.13.54.54,0,0,0-.56,0s-.09.1-.07.13a.22.22,0,0,0,.13.12A1.67,1.67,0,0,0,13,4.39Zm.59-.06a.39.39,0,0,0-.08-.1s-.09,0-.11,0a.23.23,0,0,0-.06.13.13.13,0,0,0,0,.06l.12,0S13.65,4.39,13.63,4.33Z"/><path d="M8.74,4.85A1.19,1.19,0,0,1,8.42,6a1.57,1.57,0,0,1-.71.34,1.83,1.83,0,0,1-1.19-.15,1.21,1.21,0,0,1-.75-.86,1.37,1.37,0,0,1,.46-1.59,1.62,1.62,0,0,1,2.43.8A1.78,1.78,0,0,1,8.74,4.85ZM7.26,4.19c.21,0,.38,0,.44-.22s0-.15-.1-.2a1.17,1.17,0,0,0-1,0c-.06,0-.13.1-.12.16a.37.37,0,0,0,.19.15A5.48,5.48,0,0,0,7.26,4.19ZM8,4a.18.18,0,0,0-.18.18c0,.1.09.08.15.09l.12,0a.17.17,0,0,0,.12,0,.11.11,0,0,0,0-.11A.31.31,0,0,0,8,4Z"/><path class="cls-14" d="M13,4.39a1.67,1.67,0,0,1-.29-.06.22.22,0,0,1-.13-.12s0-.1.07-.13a.54.54,0,0,1,.56,0,.11.11,0,0,1,.07.13C13.28,4.35,13.27,4.37,13,4.39Z"/><path class="cls-14" d="M13.63,4.33c0,.06,0,.12-.08.1l-.12,0a.13.13,0,0,1,0-.06.23.23,0,0,1,.06-.13s.08,0,.11,0A.39.39,0,0,1,13.63,4.33Z"/><path class="cls-14" d="M7.26,4.19a5.48,5.48,0,0,1-.56-.1.37.37,0,0,1-.19-.15c0-.06.06-.14.12-.16a1.17,1.17,0,0,1,1,0c.12,0,.13.11.1.2S7.47,4.19,7.26,4.19Z"/><path class="cls-14" d="M8,4a.31.31,0,0,1,.23.17.11.11,0,0,1,0,.11.17.17,0,0,1-.12,0l-.12,0c-.06,0-.14,0-.15-.09A.18.18,0,0,1,8,4Z"/></g></g></g></svg>